<svg xmlns="http://www.w3.org/2000/svg" viewBox="0 0 66.76 62.59" id="logo">
  <title>Varlık 1</title>
  <g id="96749dd4-901d-4ba7-88a6-c41f0efdc18c" data-name="katman 2">
    <g id="34a84d52-d926-480f-9359-9cc66e9ff996" data-name="katman 1">
      <g>
        <path class="7d31bfee-4f87-4fa4-aa9e-7077a0f6d7df" d="M53.53,0a6.5,6.5,0,0,0-4.64,1.94l-12,12.17a2.73,2.73,0,0,1-3.85,0l-12-12.17A6.5,6.5,0,0,0,16.47,0a2.73,2.73,0,0,0-2.73,2.73v38.2a2.73,2.73,0,0,0,2.73,2.73,6.5,6.5,0,0,0,4.64-1.94l12-12.17a2.73,2.73,0,0,1,3.85,0l12,12.17a6.5,6.5,0,0,0,4.64,1.94,2.73,2.73,0,0,0,2.73-2.73V2.73A2.73,2.73,0,0,0,53.53,0ZM19.2,29.12V14.53a2.73,2.73,0,0,1,4.65-1.93l9.22,9.22L23.85,31A2.73,2.73,0,0,1,19.2,29.12Zm31.6,0A2.73,2.73,0,0,1,46.15,31l-9.22-9.22,9.22-9.22a2.73,2.73,0,0,1,4.65,1.93V29.12Z"/>
        <path class="7d31bfee-4f87-4fa4-aa9e-7077a0f6d7df" d="M10.1,51.56H8.21a.25.25,0,0,0-.26.16L5.21,58H5.14L2.35,51.72a.25.25,0,0,0-.26-.16H.16a.15.15,0,0,0-.16.16V62.43a.15.15,0,0,0,.16.16H2a.15.15,0,0,0,.16-.16V56.22h.06l2,4.66a.31.31,0,0,0,.31.21H5.69A.31.31,0,0,0,6,60.87l2-4.66h.06v6.21a.15.15,0,0,0,.16.16H10.1a.15.15,0,0,0,.16-.16V51.72A.15.15,0,0,0,10.1,51.56Z"/>
        <path class="7d31bfee-4f87-4fa4-aa9e-7077a0f6d7df" d="M27.33,51.56h-2a.21.21,0,0,0-.21.16l-3.8,10.71c0,.1,0,.16.11.16h2.12a.2.2,0,0,0,.21-.16l.62-1.93H28.2l.63,1.93a.2.2,0,0,0,.21.16h2.11c.11,0,.15-.06.11-.16L27.54,51.72A.21.21,0,0,0,27.33,51.56ZM25,58.47l1.25-3.86h0l1.25,3.86Z"/>
        <path class="7d31bfee-4f87-4fa4-aa9e-7077a0f6d7df" d="M52.38,51.56h-1.9a.25.25,0,0,0-.26.16L47.48,58h-.06l-2.79-6.29a.25.25,0,0,0-.26-.16H42.44a.15.15,0,0,0-.16.16V62.43a.15.15,0,0,0,.16.16h1.83a.15.15,0,0,0,.16-.16V56.22h.06l2,4.66a.31.31,0,0,0,.31.21H48a.31.31,0,0,0,.31-.21l2-4.66h.06v6.21a.15.15,0,0,0,.16.16h1.83a.15.15,0,0,0,.16-.16V51.72A.15.15,0,0,0,52.38,51.56Z"/>
        <rect class="7d31bfee-4f87-4fa4-aa9e-7077a0f6d7df" x="64.38" y="51.56" width="2.38" height="11.03" rx="0.16" ry="0.16"/>
      </g>
    </g>
  </g>
</svg>
